# xmcd
#
# Track frame offsets:
#	150
#	900
#	15788
#	28583
#	43310
#	44060
#	69267
#	91733
#	110263
#	134358
#	155893
#	183643
#	195948
#	196698
#	197448
#	198198
#	221535
#	222570
#	223865
#	225293
#	226148
#	227493
#	228865
#	229790
#	230968
#	232335
#	233610
#	234495
#	235575
#	236448
#	237350
#	238300
#	239298
#	240625
#	241890
#	242820
#	243600
#	244828
#	245675
#	246690
#	247908
#	248928
#	249758
#	250543
#	251640
#	252508
#	253670
#	255105
#	256443
#	257520
#	258870
#	259998
#	260978
#	262122
#	263300
#	264248
#	265513
#	266263
#	267013
#	267763
#	272588
#	277450
#
# Disc length: 3759 seconds
#
# Revision: 0
# Processed by: cddbd v1.5.2PL0 Copyright (c) Steve Scherf et al.
# Submitted via: EasyCDDAExtractor 7.1.2.1
#
DISCID=690ead3e
DTITLE=Various Artist - TM Century - HitDisc 180C
DYEAR=1996
DGENRE=Pop
TTITLE0=blank - blank
TTITLE1=Thrasher Shiver - Be Honest [Single Version]
TTITLE2=Regina Regina - More Than I Wanted To Know
TTITLE3=Noel Haggard - Once You Learn
TTITLE4=blank - blank
TTITLE5=George Benson - The Thinker
TTITLE6=Dave Koz - Lullaby For A Rainy Night
TTITLE7=Paul Hardcastle - Jokers Wild [Radio Edit]
TTITLE8=Norman Brown - Third World
TTITLE9=Chieli Minucci - Cause We've Ended As Lovers [Radio Edit]
TTITLE10=Brian Hughes - Soul Fruit
TTITLE11=Boney M - Mary's Boy Child
TTITLE12=blank - blank
TTITLE13=blank - blank
TTITLE14=blank - blank
TTITLE15=TM Century Inc - Montage Of 1996 #1 Country Hits
TTITLE16=blank - blank
TTITLE17=blank - blank
TTITLE18=blank - blank
TTITLE19=blank - blank
TTITLE20=blank - blank
TTITLE21=blank - blank
TTITLE22=blank - blank
TTITLE23=blank - blank
TTITLE24=blank - blank
TTITLE25=blank - blank
TTITLE26=blank - blank
TTITLE27=blank - blank
TTITLE28=blank - blank
TTITLE29=blank - blank
TTITLE30=blank - blank
TTITLE31=blank - blank
TTITLE32=blank - blank
TTITLE33=blank - blank
TTITLE34=blank - blank
TTITLE35=blank - blank
TTITLE36=blank - blank
TTITLE37=blank - blank
TTITLE38=blank - blank
TTITLE39=blank - blank
TTITLE40=blank - blank
TTITLE41=blank - blank
TTITLE42=blank - blank
TTITLE43=blank - blank
TTITLE44=blank - blank
TTITLE45=blank - blank
TTITLE46=blank - blank
TTITLE47=blank - blank
TTITLE48=blank - blank
TTITLE49=blank - blank
TTITLE50=blank - blank
TTITLE51=blank - blank
TTITLE52=blank - blank
TTITLE53=blank - blank
TTITLE54=blank - blank
TTITLE55=blank - blank
TTITLE56=blank - blank
TTITLE57=blank - blank
TTITLE58=blank - blank
TTITLE59=blank - blank
TTITLE60=blank - blank
TTITLE61=blank - blank
EXTD=
EXTT0=
EXTT1=
EXTT2=
EXTT3=
EXTT4=
EXTT5=
EXTT6=
EXTT7=
EXTT8=
EXTT9=
EXTT10=
EXTT11=
EXTT12=
EXTT13=
EXTT14=
EXTT15=
EXTT16=
EXTT17=
EXTT18=
EXTT19=
EXTT20=
EXTT21=
EXTT22=
EXTT23=
EXTT24=
EXTT25=
EXTT26=
EXTT27=
EXTT28=
EXTT29=
EXTT30=
EXTT31=
EXTT32=
EXTT33=
EXTT34=
EXTT35=
EXTT36=
EXTT37=
EXTT38=
EXTT39=
EXTT40=
EXTT41=
EXTT42=
EXTT43=
EXTT44=
EXTT45=
EXTT46=
EXTT47=
EXTT48=
EXTT49=
EXTT50=
EXTT51=
EXTT52=
EXTT53=
EXTT54=
EXTT55=
EXTT56=
EXTT57=
EXTT58=
EXTT59=
EXTT60=
EXTT61=
PLAYORDER=
